<?xml version="1.0" encoding="utf-8"?>
<!-- Generator: Adobe Illustrator 18.0.0, SVG Export Plug-In . SVG Version: 6.00 Build 0)  -->
<!DOCTYPE svg PUBLIC "-//W3C//DTD SVG 1.1//EN" "http://www.w3.org/Graphics/SVG/1.1/DTD/svg11.dtd">
<svg version="1.1" id="Layer_1" xmlns="http://www.w3.org/2000/svg" xmlns:xlink="http://www.w3.org/1999/xlink" x="0px" y="0px"
	 viewBox="0 0 60 60" enable-background="new 0 0 60 60" xml:space="preserve">
<g id="Layer_1_1_">
</g>
<g id="Logotype">
	<g>
		<g>
			<g>
				<g>
					<g enable-background="new    ">
						<g>
							<g>
								<g>
									<path fill="#131437" d="M32.8,13.7c0.7,0.6,1,1.5,1,2.5s-0.3,1.9-1,2.5s-1.5,1-2.6,1s-2-0.3-2.6-1c-0.7-0.6-1-1.5-1-2.5
										s0.3-1.8,1-2.5c0.7-0.6,1.5-1,2.6-1C31.2,12.7,32.1,13,32.8,13.7z M28.5,14.5c-0.4,0.4-0.7,1-0.7,1.6s0.2,1.2,0.7,1.6
										c0.4,0.4,1,0.6,1.6,0.6c0.7,0,1.2-0.2,1.7-0.6c0.4-0.4,0.7-1,0.7-1.6s-0.2-1.2-0.7-1.6c-0.4-0.4-1-0.6-1.7-0.6
										C29.5,13.9,29,14.1,28.5,14.5z"/>
								</g>
							</g>
						</g>
					</g>
				</g>
			</g>
			<path fill="#131437" d="M35.1,37.2H24.8l-2.6,6.6h-2L28.8,22H31l8.6,21.8h-2L35.1,37.2z M34.4,35.5l-3.6-9.1L30,23.9h-0.1
				l-0.8,2.4l-3.6,9.2H34.4z"/>
		</g>
		<path fill="#131437" d="M30,1.5c15.7,0,28.4,12.8,28.4,28.4S45.7,58.4,30,58.4S1.6,45.7,1.6,30S14.3,1.5,30,1.5 M30,0
			C13.4,0,0,13.4,0,30s13.4,30,30,30s30-13.4,30-30S46.6,0,30,0L30,0z"/>
	</g>
</g>
</svg>
