<?xml version="1.0" encoding="utf-8"?>
<!-- Generator: Adobe Illustrator 18.0.0, SVG Export Plug-In . SVG Version: 6.00 Build 0)  -->
<!DOCTYPE svg PUBLIC "-//W3C//DTD SVG 1.1//EN" "http://www.w3.org/Graphics/SVG/1.1/DTD/svg11.dtd">
<svg version="1.1" xmlns="http://www.w3.org/2000/svg" xmlns:xlink="http://www.w3.org/1999/xlink" x="0px" y="0px"
	 viewBox="0 0 20 20" enable-background="new 0 0 20 20" xml:space="preserve">
<g id="Layer_1">
</g>
<g id="Logotype">
	<g>
		<path fill="#141437" d="M10,0C4.5,0,0,4.5,0,10s4.5,10,10,10s10-4.5,10-10S15.5,0,10,0z M10,19.2c-5.1,0-9.2-4.1-9.2-9.2
			S4.9,0.8,10,0.8s9.2,4.1,9.2,9.2S15.1,19.2,10,19.2z"/>
		<path fill="#141437" d="M11.6,12.5H8.4l-0.8,2H6.7l2.8-7.2h1l2.8,7.2h-0.9L11.6,12.5z M11.3,11.7l-1-2.5l-0.3-1h0l-0.3,1l-1,2.6
			H11.3z"/>
		<path fill="#141437" d="M11,4.4c0.2,0.2,0.4,0.5,0.4,0.9S11.3,6,11,6.2c-0.2,0.2-0.6,0.4-1,0.4c-0.4,0-0.7-0.1-1-0.4
			C8.8,6,8.7,5.7,8.7,5.3s0.1-0.7,0.4-0.9C9.3,4.1,9.6,4,10,4C10.5,4,10.8,4.1,11,4.4z M9.5,4.8C9.4,4.9,9.3,5.1,9.3,5.3
			c0,0.2,0.1,0.4,0.2,0.5C9.6,6,9.8,6.1,10,6.1s0.4-0.1,0.6-0.2c0.1-0.1,0.2-0.3,0.2-0.5c0-0.2-0.1-0.4-0.2-0.5
			c-0.1-0.1-0.3-0.2-0.6-0.2S9.6,4.6,9.5,4.8z"/>
	</g>
</g>
</svg>
