<?xml version="1.0" encoding="utf-8"?>
<!-- Generator: Adobe Illustrator 18.0.0, SVG Export Plug-In . SVG Version: 6.00 Build 0)  -->
<!DOCTYPE svg PUBLIC "-//W3C//DTD SVG 1.1//EN" "http://www.w3.org/Graphics/SVG/1.1/DTD/svg11.dtd">
<svg version="1.1" xmlns="http://www.w3.org/2000/svg" xmlns:xlink="http://www.w3.org/1999/xlink" x="0px" y="0px"
	 viewBox="0 0 40 40" enable-background="new 0 0 40 40" xml:space="preserve">
<g id="Layer_1">
</g>
<g id="Logotype">
	<g>
		<g>
			<g>
				<g>
					<g enable-background="new    ">
						<g>
							<g>
								<g>
									<path fill="#141437" d="M21.8,9.1c0.4,0.4,0.7,1,0.7,1.6c0,0.7-0.2,1.2-0.7,1.7c-0.4,0.4-1,0.6-1.7,0.6
										c-0.7,0-1.3-0.2-1.7-0.6c-0.4-0.4-0.7-1-0.7-1.7c0-0.7,0.2-1.2,0.7-1.6c0.4-0.4,1-0.6,1.7-0.6C20.8,8.5,21.4,8.7,21.8,9.1z
										 M19,9.7c-0.3,0.3-0.4,0.6-0.4,1.1c0,0.4,0.1,0.8,0.4,1.1c0.3,0.3,0.7,0.4,1.1,0.4c0.4,0,0.8-0.1,1.1-0.4
										c0.3-0.3,0.4-0.6,0.4-1.1c0-0.4-0.1-0.8-0.4-1.1c-0.3-0.3-0.7-0.4-1.1-0.4C19.7,9.3,19.3,9.4,19,9.7z"/>
								</g>
							</g>
						</g>
					</g>
				</g>
			</g>
			<path fill="#141437" d="M23.4,24.8h-6.9l-1.7,4.4h-1.3l5.8-14.5h1.5l5.7,14.5h-1.3L23.4,24.8z M23,23.7l-2.4-6L20,15.9h0
				l-0.5,1.6L17,23.7H23z"/>
		</g>
		<path fill="#141437" d="M20,1c10.5,0,19,8.5,19,19s-8.5,19-19,19S1,30.5,1,20S9.5,1,20,1 M20,0C9,0,0,9,0,20s9,20,20,20
			s20-9,20-20S31,0,20,0L20,0z"/>
	</g>
</g>
</svg>
