<?xml version="1.0" encoding="utf-8"?>
<!-- Generator: Adobe Illustrator 18.0.0, SVG Export Plug-In . SVG Version: 6.00 Build 0)  -->
<!DOCTYPE svg PUBLIC "-//W3C//DTD SVG 1.1//EN" "http://www.w3.org/Graphics/SVG/1.1/DTD/svg11.dtd">
<svg version="1.1" id="Layer_1" xmlns="http://www.w3.org/2000/svg" xmlns:xlink="http://www.w3.org/1999/xlink" x="0px" y="0px"
	 viewBox="0 0 100 56" enable-background="new 0 0 100 56" xml:space="preserve">
<g>
	<g>
		<g>
			<path fill="#141437" d="M65,56c-0.2,0-0.5,0-0.7-0.2l-7.1-6.9C57,48.8,56.8,48.2,57,48c0.2-0.4,0.5-0.5,0.9-0.5h20.5
				c10.9,0,19.8-8.7,19.8-19.4S89.3,8.8,78.4,8.8H49c-0.5,0-0.9-0.4-0.9-0.9S48.5,7,49,7h29.4C90.2,7,100,16.6,100,28.1
				c0,11.8-9.6,21.2-21.6,21.2H60.1l5.4,5.4c0.4,0.4,0.4,0.9,0,1.3C65.3,56,65.2,56,65,56z"/>
		</g>
	</g>
	<g>
		<g>
			<path fill="#141437" d="M51,49.1H21.6C9.8,49.1,0,39.5,0,28C0,16.2,9.6,6.8,21.6,6.8h17.6l-5.3-5.2c-0.4-0.4-0.4-0.9,0-1.3
				c0.4-0.4,0.9-0.4,1.3,0l6.9,6.9c0.2,0.2,0.4,0.7,0.2,0.9c-0.2,0.4-0.5,0.5-0.9,0.5H21.6C10.7,8.6,1.8,17.3,1.8,28
				s8.9,19.4,19.8,19.4H51c0.5,0,0.9,0.4,0.9,0.9C51.9,48.8,51.5,49.1,51,49.1z"/>
		</g>
	</g>
</g>
</svg>
