<?xml version="1.0" encoding="UTF-8" standalone="no"?>
<svg
   xmlns:dc="http://purl.org/dc/elements/1.1/"
   xmlns:cc="http://creativecommons.org/ns#"
   xmlns:rdf="http://www.w3.org/1999/02/22-rdf-syntax-ns#"
   xmlns:svg="http://www.w3.org/2000/svg"
   xmlns="http://www.w3.org/2000/svg"
   viewBox="0 0 333.28 35.68"
   height="35.68"
   width="333.28"
   xml:space="preserve"
   id="svg2"
   version="1.1"><metadata
     id="metadata8"><rdf:RDF><cc:Work
         rdf:about=""><dc:format>image/svg+xml</dc:format><dc:type
           rdf:resource="http://purl.org/dc/dcmitype/StillImage" /></cc:Work></rdf:RDF></metadata><defs
     id="defs6"><clipPath
       id="clipPath20"
       clipPathUnits="userSpaceOnUse"><path
         id="path18"
         d="M 0,267.633 V 0 h 2499.61 v 267.633 z" /></clipPath></defs><g
     transform="matrix(1.3333333,0,0,-1.3333333,0,35.68)"
     id="g10"><g
       transform="scale(0.1)"
       id="g12"><g
         id="g14"><g
           clip-path="url(#clipPath20)"
           id="g16"><path
             id="path22"
             style="fill:#231f20;fill-opacity:1;fill-rule:nonzero;stroke:none"
             d="m 2499.61,4.92188 -9.85,262.00812 -5.63,0.703 L 2375.11,73.4961 2263.29,267.633 2258,266.93 2248.15,4.92188 h 28.5 l 3.15,182.52312 92.16,-156.1559 h 3.87 l 91.42,155.8049 3.87,-182.17212 z m -354.16,0 h 28.13 V 262.711 h -28.13 z m -64.02,0 V 30.2344 H 1958.7 v 92.8516 h 110.43 v 25.316 H 1958.7 v 88.985 h 122.73 v 25.324 H 1930.57 V 4.92188 Z m -227.21,0 V 262.711 H 1826.1 V 148.402 H 1688.23 V 262.711 H 1660.1 V 4.92188 h 28.13 V 123.086 H 1826.1 V 4.92188 Z m -464.59,262.71112 -5.62,-1.406 V 4.92188 h 28.13 V 200.445 L 1579.56,0 l 3.5,1.05469 V 262.711 h -28.13 V 70.332 Z M 1315.42,4.92188 V 30.2344 h -122.74 v 92.8516 h 110.42 v 25.316 h -110.42 v 88.985 h 122.74 v 25.324 H 1164.54 V 4.92188 Z M 986.746,124.844 V 99.5312 h 96.364 c -4.93,-40.0976 -40.8,-73.8476 -91.446,-73.8476 -60.137,0 -104.801,47.1094 -104.801,107.9534 0,56.972 38.34,107.968 104.106,107.968 28.141,0 57.671,-10.898 81.581,-28.132 l 14.78,22.148 c -27.08,18.992 -53.81,31.309 -96.717,31.309 -66.468,0 -134.347,-52.403 -134.347,-133.293 0,-80.5315 63.308,-132.933875 134.703,-132.933875 74.561,0 122.041,56.269575 122.041,124.140875 z m -301.133,0 V 99.5312 h 96.375 c -4.933,-40.0976 -40.8,-73.8476 -91.453,-73.8476 -60.129,0 -104.797,47.1094 -104.797,107.9534 0,56.972 38.34,107.968 104.098,107.968 28.137,0 57.68,-10.898 81.602,-28.132 l 14.769,22.148 c -27.082,18.992 -53.82,31.309 -96.719,31.309 -66.468,0 -134.351,-52.403 -134.351,-133.293 0,-80.5315 63.308,-132.933875 134.699,-132.933875 74.559,0 122.039,56.269575 122.039,124.140875 z M 401.578,0.703125 C 459.258,0.703125 499,37.6367 499,97.4219 V 262.711 H 470.867 V 99.5117 c 0,-51.3281 -29.195,-73.4961 -69.289,-73.4961 -40.441,0 -68.582,21.7969 -68.582,73.4961 V 262.711 H 304.867 V 97.4219 c 0,-61.8946 37.633,-96.718775 96.711,-96.718775 M 256.742,124.844 C 256.742,56.9727 209.262,0.703125 134.703,0.703125 63.3086,0.703125 0,53.1055 0,133.637 c 0,80.89 67.8828,133.293 134.352,133.293 42.898,0 69.636,-12.317 96.718,-31.309 l -14.781,-22.148 c -23.906,17.234 -53.445,28.132 -81.586,28.132 -65.7616,0 -104.1014,-50.996 -104.1014,-107.968 0,-60.844 44.6679,-107.9534 104.7964,-107.9534 50.653,0 86.52,33.75 91.454,73.8476 H 130.48 v 25.3128 h 126.262" /></g></g></g></g></svg>