<?xml version="1.0" encoding="UTF-8" standalone="no"?>
<svg width="50px" height="41px" viewBox="0 0 50 41" version="1.1" xmlns="http://www.w3.org/2000/svg" xmlns:xlink="http://www.w3.org/1999/xlink">
    <g stroke="none" stroke-width="1" fill="none" fill-rule="evenodd">
        <g id="twitter-icon" fill="#eeeeee">
            <path d="M0,36.3461306 C0.803663004,36.4417973 1.62142857,36.4907387 2.45054945,36.4907387 C7.26336996,36.4907387 11.6928571,34.8346712 15.2086081,32.0564595 C10.71337,31.9727973 6.91959707,28.9779505 5.61245421,24.8624369 C6.23956044,24.9834054 6.88315018,25.0482297 7.54505495,25.0482297 C8.48205128,25.0482297 9.38956044,24.9217207 10.2516484,24.684955 C5.55201465,23.7334595 2.01117216,19.5466577 2.01117216,14.5276667 C2.01117216,14.4840811 2.01117216,14.4406802 2.01190476,14.397464 C3.3970696,15.1733243 4.98095238,15.6392838 6.66501832,15.693027 C3.90860806,13.8354685 2.09487179,10.6648018 2.09487179,7.07102252 C2.09487179,5.17264865 2.6014652,3.39321171 3.48571429,1.86328378 C8.55238095,8.13037387 16.1217949,12.2543829 24.6595238,12.6863604 C24.4844322,11.9282297 24.3934066,11.1375946 24.3934066,10.3257207 C24.3934066,4.60511261 28.9930403,-0.0328738739 34.6664835,-0.0328738739 C37.6210623,-0.0328738739 40.2908425,1.2251982 42.1648352,3.23844595 C44.5047619,2.77377928 46.7032967,1.91167117 48.6880952,0.724702703 C47.9210623,3.14351802 46.2923077,5.17357207 44.1712454,6.45565315 C46.2492674,6.20522072 48.2291209,5.6483964 50.0714286,4.82451802 C48.6941392,6.90185135 46.952381,8.72635135 44.9454212,10.1868378 C44.9652015,10.6310045 44.9750916,11.0777568 44.9750916,11.5269099 C44.9750916,25.2155541 34.6424908,41 15.7472527,41 C9.9459707,41 4.54615385,39.2852027 0,36.3461306 L0,36.3461306 Z" id="bird" sketch:type="MSShapeGroup"></path>
        </g>
    </g>
</svg>
